<svg width="64" height="64" viewBox="0 0 64 64" fill="none" xmlns="http://www.w3.org/2000/svg">
<path d="M47.0002 3.96875H17.0022C9.82129 3.96875 4 9.79004 4 16.971V46.9689C4 54.1498 9.82129 59.9711 17.0022 59.9711H47.0002C54.1811 59.9711 60.0024 54.1498 60.0024 46.9689V16.971C60.0024 9.79004 54.1811 3.96875 47.0002 3.96875Z" fill="url(#paint0_linear_627_332)"/>
<path d="M28.0568 19.8004L27.5754 20.0363C26.9657 20.3359 26.6857 20.6584 26.1792 21.6399C25.7378 22.495 25.3525 22.9393 24.8305 23.1982C24.519 23.3527 24.2548 23.3679 21.2706 23.4079C18.1382 23.4499 18.0372 23.4572 17.625 23.6461C17.0717 23.8997 16.5934 24.3641 16.3431 24.8923L16.1429 25.3165L16.1406 33.7681C16.1396 43.1354 16.1125 42.6501 16.6981 43.3346C16.8597 43.5235 17.2266 43.7966 17.513 43.9398L18.0325 44.1996H45.9671L46.489 43.9375C46.8033 43.7803 47.1279 43.5334 47.3063 43.3156C47.8894 42.6035 47.86 43.1258 47.8591 33.7702L47.8567 25.316L47.6565 24.8919C47.4062 24.3638 46.9279 23.8993 46.3746 23.6456C45.9624 23.4567 45.8615 23.4494 42.729 23.4074C39.133 23.3591 39.1655 23.3637 38.5544 22.7521C38.3735 22.5711 38.0435 22.0714 37.8205 21.6393C37.314 20.6577 37.034 20.3355 36.4242 20.0357L35.9429 19.7998L28.0568 19.8004ZM31.6309 24.7755C32.3549 24.7453 33.0862 24.7802 33.6206 24.8875C35.1808 25.2007 36.6562 25.9739 37.8261 27.0891C39.0187 28.2258 39.8105 29.548 40.2423 31.1303C40.414 31.7591 40.4383 32.0362 40.4329 33.2937C40.428 34.6057 40.4061 34.8055 40.1994 35.4835C39.7912 36.8242 39.2561 37.8066 38.3814 38.8312C37.3911 39.991 35.6417 41.0548 34.0783 41.4474C33.1216 41.6876 31.6773 41.7782 30.8544 41.6499C28.1251 41.2245 25.7164 39.5372 24.4828 37.1869C23.7357 35.7634 23.479 34.5898 23.5416 32.8789C23.6046 31.1586 23.9904 29.9485 24.9213 28.5422C26.0202 26.8821 27.7096 25.6449 29.6892 25.0515C30.1908 24.9012 30.9069 24.8056 31.6309 24.7755ZM32.4435 27.1201C32.081 27.0979 31.7106 27.1062 31.3355 27.1487C28.8787 27.4267 26.9114 29.076 26.1317 31.5115C25.8888 32.2698 25.8361 33.6526 26.0174 34.4899C26.3021 35.8052 27.11 37.1437 28.1404 37.9998C29.6446 39.2493 31.8514 39.7016 33.7565 39.1506C34.7025 38.877 35.5499 38.3612 36.3346 37.5827C37.1454 36.7783 37.5769 36.0863 37.9191 35.0475C38.1015 34.494 38.1342 34.2324 38.1407 33.2938C38.1464 32.3593 38.1184 32.0934 37.9501 31.5568C37.1381 28.9693 34.9807 27.2754 32.4435 27.1201Z" fill="#F8F8F8"/>
<defs>
<linearGradient id="paint0_linear_627_332" x1="25.9659" y1="57.1893" x2="25.9659" y2="6.88509" gradientUnits="userSpaceOnUse">
<stop stop-color="#D01F41"/>
<stop offset="1" stop-color="#ED3E67"/>
</linearGradient>
</defs>
</svg>
