<svg width="64" height="64" viewBox="0 0 64 64" fill="none" xmlns="http://www.w3.org/2000/svg">
<g clip-path="url(#clip0_627_3737)">
<path opacity="0.01" d="M16.5144 2C8.52359 2 2 8.74092 2 16.9982V49.002C2 57.2589 8.52359 64.0002 16.5144 64.0002H47.486C55.4768 64.0002 62.0004 57.2593 62.0004 49.002V16.9982C62.0004 8.7413 55.4768 2 47.486 2H16.5144ZM17.4859 3.96876H46.5163C53.487 3.96876 59.099 9.76742 59.099 16.9706V46.9685C59.099 54.1717 53.4874 59.9704 46.5163 59.9704H17.4859C10.5152 59.9704 4.90326 54.1717 4.90326 46.9685V16.9706C4.90326 9.76742 10.5148 3.96876 17.4859 3.96876Z" fill="black"/>
<path opacity="0.01" d="M16.4745 3C9.0408 3 3.00439 9.24693 3.00439 16.9377V49.0628C3.00439 56.7535 9.0408 63.0004 16.4745 63.0004H47.5285C54.9622 63.0004 61.0005 56.7535 61.0005 49.0628V16.9377C61.0005 9.24693 54.9622 3 47.5285 3H16.4745ZM17.5034 3.96875H46.4998C53.4625 3.96875 59.0673 9.76741 59.0673 16.9706V46.9685C59.0673 54.1717 53.4622 59.9704 46.4998 59.9704H17.5034C10.5406 59.9704 4.93585 54.1717 4.93585 46.9685V16.9706C4.93585 9.76741 10.541 3.96875 17.5034 3.96875Z" fill="black"/>
<path opacity="0.03" d="M16.2893 4C9.23765 4 3.53271 9.81416 3.53271 16.9981V49.0018C3.53271 56.1857 9.46669 61.9999 16.5183 61.9999H47.5095C54.5611 61.9999 60.4637 56.1857 60.4637 49.0018V16.9981C60.4637 9.81416 54.7565 4 47.7053 4H47.3391C54.1197 4.32699 59.486 9.97895 59.486 16.9708V46.9688C59.486 54.1719 53.7943 59.9706 46.7238 59.9706H17.2788C10.2083 59.9706 4.51662 54.1719 4.51662 46.9688V16.9708C4.51662 9.97933 9.88328 4.32769 16.6635 4H16.2893Z" fill="black"/>
<path opacity="0.03" d="M4 46.9697V49.0009C4 55.6489 9.89574 61.001 16.5441 61.001H47.5053C54.1533 61.001 60.0004 55.6489 60.0004 49.0009V47.0087C59.9792 54.1937 54.1904 59.9718 47.0003 59.9718H17.0021C9.79884 59.9718 4 54.1731 4 46.9697Z" fill="black"/>
<path opacity="0.05" d="M4 45V47.2388C4 54.566 9.94494 60.4648 16.5929 60.4648H47.4356C54.0835 60.4648 60.0001 54.5656 60.0001 47.2388V45.0431C59.9789 52.9621 54.1901 59.3304 47.0002 59.3304H17.0022C9.79904 59.3304 4 52.9391 4 45Z" fill="black"/>
<path d="M47.0002 3.96875H17.0022C9.82129 3.96875 4 9.79004 4 16.971V46.9689C4 54.1498 9.82129 59.9711 17.0022 59.9711H47.0002C54.1811 59.9711 60.0024 54.1498 60.0024 46.9689V16.971C60.0024 9.79004 54.1811 3.96875 47.0002 3.96875Z" fill="white"/>
<rect x="14" y="15" width="15" height="15" rx="4" fill="#FF0000"/>
<rect x="34" y="15" width="15" height="15" rx="4" fill="#05FF00"/>
<rect x="14" y="35" width="15" height="15" rx="4" fill="#0029FF"/>
<rect x="34" y="35" width="15" height="15" rx="4" fill="#FAFF00"/>
</g>
<defs>
<clipPath id="clip0_627_3737">
<rect width="64" height="64" fill="white"/>
</clipPath>
</defs>
</svg>
